<?xml version="1.0" encoding="UTF-8"?>
<svg xmlns="http://www.w3.org/2000/svg" xmlns:xlink="http://www.w3.org/1999/xlink" width="18pt" height="18pt" viewBox="0 0 18 18" version="1.1">
<g id="surface1">
<path style=" stroke:none;fill-rule:nonzero;fill:rgb(100%,100%,100%);fill-opacity:1;" d="M 13.066406 2.335938 C 13.644531 2.335938 14.113281 2.804688 14.113281 3.382812 C 14.113281 3.964844 13.644531 4.433594 13.066406 4.433594 C 12.050781 4.433594 3.945312 4.433594 2.929688 4.433594 C 2.351562 4.433594 1.882812 3.964844 1.882812 3.382812 C 1.882812 2.804688 2.351562 2.335938 2.929688 2.335938 C 4.957031 2.335938 11.039062 2.335938 13.066406 2.335938 Z M 13.066406 2.335938 "/>
<path style=" stroke:none;fill-rule:nonzero;fill:rgb(100%,100%,100%);fill-opacity:1;" d="M 13.042969 4.40625 C 13.042969 10.136719 13.042969 13.320312 13.042969 13.957031 C 13.042969 14.894531 12.371094 15.566406 11.542969 15.566406 C 10.835938 15.566406 5.160156 15.566406 4.453125 15.566406 C 3.625 15.566406 2.953125 14.894531 2.953125 13.957031 C 2.953125 13.316406 2.953125 10.128906 2.953125 4.390625 L 13.042969 4.390625 Z M 13.042969 4.40625 "/>
<path style=" stroke:none;fill-rule:nonzero;fill:rgb(100%,0%,0%);fill-opacity:1;" d="M 9.835938 6.171875 C 9.835938 6.882812 9.835938 12.546875 9.835938 13.257812 C 9.835938 13.460938 10.003906 13.628906 10.210938 13.628906 C 10.417969 13.628906 10.585938 13.460938 10.585938 13.257812 C 10.585938 12.546875 10.585938 6.882812 10.585938 6.171875 C 10.585938 5.964844 10.417969 5.796875 10.210938 5.796875 C 10.003906 5.796875 9.835938 5.964844 9.835938 6.171875 Z M 9.835938 6.171875 "/>
<path style=" stroke:none;fill-rule:nonzero;fill:rgb(100%,0%,0%);fill-opacity:1;" d="M 5.410156 6.171875 C 5.410156 6.882812 5.410156 12.546875 5.410156 13.257812 C 5.410156 13.460938 5.578125 13.628906 5.785156 13.628906 C 5.992188 13.628906 6.160156 13.460938 6.160156 13.257812 C 6.160156 12.546875 6.160156 6.882812 6.160156 6.171875 C 6.160156 5.964844 5.992188 5.796875 5.785156 5.796875 C 5.578125 5.796875 5.410156 5.964844 5.410156 6.171875 Z M 5.410156 6.171875 "/>
<path style=" stroke:none;fill-rule:nonzero;fill:rgb(100%,23.529412%,0%);fill-opacity:1;" d="M 2.5625 14 C 2.5625 14.542969 2.761719 15.054688 3.113281 15.425781 C 3.460938 15.792969 3.945312 16.003906 4.453125 16.003906 C 5.160156 16.003906 10.835938 16.003906 11.542969 16.003906 C 12.050781 16.003906 12.535156 15.792969 12.882812 15.425781 C 13.230469 15.054688 13.433594 14.542969 13.433594 14 C 13.433594 13.597656 13.433594 11.972656 13.433594 10.1875 C 13.433594 7.871094 13.433594 5.285156 13.433594 4.765625 C 13.675781 4.695312 13.898438 4.566406 14.078125 4.390625 C 14.484375 3.980469 14.605469 3.367188 14.382812 2.832031 C 14.160156 2.300781 13.640625 1.953125 13.066406 1.949219 C 12.9375 1.949219 12.296875 1.949219 11.144531 1.949219 C 11.144531 1.667969 11.144531 1.511719 11.144531 1.480469 C 11.148438 1.085938 10.992188 0.707031 10.714844 0.429688 C 10.433594 0.152344 10.054688 -0.00390625 9.660156 0 C 9.328125 0 6.667969 0 6.332031 0 C 5.941406 -0.00390625 5.5625 0.152344 5.28125 0.429688 C 5.003906 0.707031 4.847656 1.085938 4.851562 1.480469 C 4.851562 1.511719 4.851562 1.667969 4.851562 1.949219 C 3.699219 1.949219 3.058594 1.949219 2.929688 1.949219 C 2.144531 1.957031 1.507812 2.59375 1.5 3.382812 C 1.503906 4.03125 1.9375 4.59375 2.5625 4.765625 C 2.5625 6.609375 2.5625 13.074219 2.5625 14 Z M 4.453125 15.253906 C 3.8125 15.253906 3.3125 14.703125 3.3125 14 C 3.3125 13.382812 3.3125 10.316406 3.3125 4.796875 L 12.683594 4.796875 C 12.683594 10.316406 12.683594 13.382812 12.683594 14 C 12.683594 14.703125 12.183594 15.253906 11.542969 15.253906 C 10.125 15.253906 5.160156 15.253906 4.453125 15.253906 Z M 5.597656 1.480469 C 5.597656 1.285156 5.671875 1.097656 5.8125 0.960938 C 5.949219 0.820312 6.136719 0.746094 6.332031 0.75 C 6.667969 0.75 9.328125 0.75 9.660156 0.75 C 9.855469 0.746094 10.046875 0.820312 10.183594 0.960938 C 10.320312 1.097656 10.398438 1.285156 10.394531 1.480469 C 10.394531 1.511719 10.394531 1.667969 10.394531 1.949219 L 5.597656 1.949219 C 5.597656 1.699219 5.597656 1.542969 5.597656 1.480469 Z M 2.929688 2.699219 C 3.945312 2.699219 12.050781 2.699219 13.066406 2.699219 C 13.4375 2.703125 13.738281 3.003906 13.738281 3.378906 C 13.738281 3.558594 13.667969 3.726562 13.542969 3.851562 C 13.414062 3.980469 13.242188 4.050781 13.066406 4.046875 C 12.050781 4.046875 3.945312 4.046875 2.929688 4.046875 C 2.558594 4.046875 2.257812 3.746094 2.257812 3.375 C 2.257812 3.199219 2.328125 3.027344 2.453125 2.902344 C 2.578125 2.773438 2.75 2.699219 2.929688 2.699219 Z M 2.929688 2.699219 "/>
<path style=" stroke:none;fill-rule:nonzero;fill:rgb(99.607843%,0%,0%);fill-opacity:1;" d="M 7.621094 6.171875 C 7.621094 6.882812 7.621094 12.546875 7.621094 13.257812 C 7.621094 13.460938 7.789062 13.628906 7.996094 13.628906 C 8.203125 13.628906 8.371094 13.460938 8.371094 13.257812 C 8.371094 12.546875 8.371094 6.882812 8.371094 6.171875 C 8.371094 5.964844 8.203125 5.796875 7.996094 5.796875 C 7.789062 5.796875 7.621094 5.964844 7.621094 6.171875 Z M 7.621094 6.171875 "/>
</g>
</svg>
